<?xml version="1.0" encoding="UTF-8"?> <svg xmlns="http://www.w3.org/2000/svg" id="Layer_1" data-name="Layer 1" viewBox="0 0 622.84 192.83"><defs><style> .cls-1 { fill: #39b54a; } .cls-1, .cls-2 { stroke-width: 0px; } .cls-2 { fill: #fff; } </style></defs><g><path class="cls-2" d="M266.02,118.44c-.84-3.04-1.18-4.89-1.43-8.43-2.87,6.49-7.17,9.28-14.08,9.28-8.1,0-13.75-5.23-13.75-12.73,0-6.49,4.13-10.96,11.97-12.9,4.39-1.1,8.43-1.43,15.85-1.43v-3.12c0-4.3-2.95-6.41-8.85-6.41s-8.6,1.94-9.61,6.41l-8.01-1.18c.68-4.05,2.19-6.41,5.48-8.6,3.46-2.36,7.42-3.29,13.32-3.29,7.17,0,11.55,1.43,14.25,4.55,2.11,2.36,2.61,4.64,2.61,10.71v18.72c0,2.7.42,5.31,1.27,8.43h-9.02ZM264.59,97.28c-11.97,0-18.21,2.95-18.21,8.69,0,3.88,2.78,6.24,7.33,6.24,6.49,0,10.88-4.47,10.88-11.13v-3.8Z"></path><path class="cls-2" d="M337.29,118.44v-25.89c0-5.31-2.44-8.01-7.17-8.01-5.82,0-9.11,4.39-9.11,12.06v21.84h-9.95v-25.89c0-2.7-.17-3.54-.93-4.97-1.1-2.02-3.29-3.2-5.82-3.2-5.65,0-9.61,5.06-9.61,12.23v21.84h-9.7v-41.57h9.11v8.85c1.86-3.54,2.87-5.06,4.56-6.49,2.36-2.02,5.73-3.2,9.27-3.2,6.16,0,9.95,3.04,11.97,9.7,3.46-6.58,7.93-9.7,13.91-9.7,7.76,0,13.32,5.4,13.32,12.99v29.43h-9.87Z"></path><path class="cls-2" d="M392.28,106.3c-2.78,8.43-9.19,12.99-18.47,12.99-11.64,0-19.14-8.43-19.14-21.5s7.84-21.76,19.56-21.76,18.64,8.1,18.72,22.77h-28.5v1.18c.08,7.59,3.71,11.89,9.95,11.89,4.81,0,7.42-1.94,9.36-6.75l8.51,1.18ZM383.26,92.72c-.17-3.12-.67-4.55-2.11-6.49-1.77-2.36-4.22-3.63-7.25-3.63-5.31,0-8.69,3.54-9.44,10.12h18.8Z"></path><path class="cls-2" d="M426.18,118.44v-25.97c0-5.06-2.53-8.26-6.49-8.26-3.12,0-6.07,2.02-7.67,5.14-1.01,2.02-1.52,4.55-1.52,7.76v21.33h-9.36v-41.57h8.51v9.61c3.46-7.5,7.09-10.46,12.73-10.46,4.81,0,9.53,2.53,11.38,6.16,1.27,2.44,1.77,5.14,1.77,9.44v26.81h-9.36Z"></path><path class="cls-2" d="M465.73,118.44c-2.62.59-5.23.93-6.58.93-3.54,0-6.83-1.27-8.85-3.29-2.19-2.19-2.87-4.72-2.87-10.37v-21.5h-5.15v-7.34h5.74l.84-10.79,7.67-.67v11.47h8.43v7.34h-8.43v20.24c0,5.23,1.52,6.75,6.83,6.75.34,0,1.35,0,2.36-.08v7.34Z"></path><path class="cls-2" d="M498.2,118.44v-9.02c-1.18,3.54-2.19,5.06-4.38,6.83-2.45,2.02-5.4,3.04-8.77,3.04-4.47,0-7.84-1.69-10.2-5.06-1.52-2.28-2.11-4.47-2.11-8.26v-29.09h9.61v27.07c0,2.19.25,3.46.84,4.55,1.01,1.69,3.04,2.78,5.06,2.78,3.29,0,6.75-2.45,8.1-5.82.93-2.11,1.27-4.47,1.27-8.6v-19.98h9.36v41.57h-8.77Z"></path><path class="cls-2" d="M569.97,118.44v-25.89c0-5.31-2.44-8.01-7.17-8.01-5.82,0-9.11,4.39-9.11,12.06v21.84h-9.95v-25.89c0-2.7-.17-3.54-.93-4.97-1.1-2.02-3.29-3.2-5.82-3.2-5.65,0-9.61,5.06-9.61,12.23v21.84h-9.7v-41.57h9.11v8.85c1.86-3.54,2.87-5.06,4.56-6.49,2.36-2.02,5.73-3.2,9.28-3.2,6.16,0,9.95,3.04,11.97,9.7,3.46-6.58,7.92-9.7,13.91-9.7,7.76,0,13.32,5.4,13.32,12.99v29.43h-9.87Z"></path></g><path class="cls-1" d="M208.2,146.01c-1.2-4.22-32.93-102.56-82.44-102.56s-81.47,98.28-82.44,102.56c-.7,3.1,2.44,5.45,5.23,3.8.32-.19,31.37-21.97,77.21-21.97s76.88,21.78,77.21,21.97c2.8,1.69,6.1-.75,5.23-3.8ZM71.14,97.92c13.35-24.03,32.61-47.65,54.62-47.65s41.27,23.62,54.62,47.65c.07.12.11.27.11.43,0,.46-.37.83-.83.83-.22,0-.43-.08-.57-.22-16.93-20.03-35.21-31.11-53.32-31.11s-36.39,11.08-53.32,31.11c-.15.14-.36.22-.57.22-.46,0-.83-.37-.83-.83,0-.16.04-.3.11-.43ZM64.07,119.36c13.43-20.44,36.3-44.69,61.69-44.69s48.25,24.26,61.69,44.69c.08.13.12.3.12.46,0,.5-.4.9-.9.9-.24,0-.46-.09-.62-.24l-1.18-1.12c-18.59-16.49-39.01-25.49-59.1-25.49s-40.51,9-59.1,25.49l-1.18,1.12c-.16.15-.39.24-.62.24-.5,0-.9-.4-.9-.9,0-.17.04-.33.12-.46ZM190.08,134.87c-.12,0-.23-.03-.34-.08-14.17-6.44-36.36-13.78-63.99-13.78s-49.82,7.34-63.98,13.78c-.1.05-.22.07-.34.08-.5.01-.91-.38-.92-.88,0-.25.19-.53.35-.69,13.08-14.1,36.59-32.6,64.9-32.6s51.81,18.5,64.9,32.6c.16.17.35.44.35.69-.01.5-.43.89-.92.88Z"></path></svg> 